<svg version="1.1" xmlns="http://www.w3.org/2000/svg" xmlns:xlink="http://www.w3.org/1999/xlink" x="0px" y="0px"
	 viewBox="0 0 5669.3 5669.3" enable-background="new 0 0 5669.3 5669.3" xml:space="preserve">
<g id="Layer_1">
</g>
<g id="logo">
	<g id="logo_1_">
		<g id="Olho">
			<g>
				<g>
					<defs>
						<circle id="SVGID_1_" cx="2112.3" cy="2654.6" r="1234.3"/>
					</defs>
					<radialGradient id="SVGID_2_" cx="2112.2603" cy="2654.595" r="1234.316" gradientUnits="userSpaceOnUse">
						<stop  offset="0" style="stop-color:#777FBD"/>
						<stop  offset="0.1942" style="stop-color:#737BB7"/>
						<stop  offset="0.4261" style="stop-color:#696FAA"/>
						<stop  offset="0.6774" style="stop-color:#575F98"/>
						<stop  offset="0.9406" style="stop-color:#404982"/>
						<stop  offset="1" style="stop-color:#3A447D"/>
						<stop  offset="1" style="stop-color:#374176"/>
					</radialGradient>
					<use xlink:href="#SVGID_1_"  overflow="visible" fill="url(#SVGID_2_)"/>
					<clipPath id="SVGID_3_">
						<use xlink:href="#SVGID_1_"  overflow="visible"/>
					</clipPath>
					<rect x="-904.2" y="757.8" clip-path="url(#SVGID_3_)" fill="#5E4A8B" width="6888.1" height="3641.5"/>
					<circle clip-path="url(#SVGID_3_)" fill="#8069AE" cx="2357.1" cy="2455.3" r="1374.6"/>
					<radialGradient id="SVGID_4_" cx="1768.619" cy="2486.4299" r="1387.8579" gradientUnits="userSpaceOnUse">
						<stop  offset="0" style="stop-color:#777FBD"/>
						<stop  offset="0.2942" style="stop-color:#757CB9"/>
						<stop  offset="0.4901" style="stop-color:#6E75AF"/>
						<stop  offset="0.6574" style="stop-color:#6369A2"/>
						<stop  offset="0.8086" style="stop-color:#535A91"/>
						<stop  offset="0.9476" style="stop-color:#40487E"/>
						<stop  offset="1" style="stop-color:#374176"/>
					</radialGradient>
					<circle display="none" clip-path="url(#SVGID_3_)" fill="url(#SVGID_4_)" cx="1768.6" cy="2486.4" r="1387.9"/>
				</g>
			</g>
			<g>
				<g>
					<defs>
						<path id="SVGID_5_" d="M2807.5,2557.1c0,353.1-282.6,186.5-635.7,186.5s-643,166.6-643-186.5s286.3-639.4,639.4-639.4
							S2807.5,2204,2807.5,2557.1z"/>
					</defs>
					<use xlink:href="#SVGID_5_"  overflow="visible" fill="#FFFFFF"/>
					<clipPath id="SVGID_6_">
						<use xlink:href="#SVGID_5_"  overflow="visible"/>
					</clipPath>
					<circle clip-path="url(#SVGID_6_)" cx="2168.2" cy="2557.1" r="413.3"/>
					<circle clip-path="url(#SVGID_6_)" fill="#FFFFFF" cx="1933.7" cy="2308.3" r="130.6"/>
				</g>
			</g>
		</g>
		<g id="lettering">
			<path id="bkg_x5F_contorno" d="M2596.8,4170.2c-430.3,0-851.7,62.8-1044.4,85.2c-13.4,0.8-67.2-434.8-67.2-434.8
				s-448.2-13.4-1241.6,67.2c-22.4-4.5-174.8-121-174.8-506.5s134.5-489.5,134.5-489.5c573.8,58.3,1459.3,134.2,2393.6,111.2h484.1
				c934.4,23,1819.9-52.9,2393.6-111.2c0,0,134.5,103.5,134.5,489s-152.4,502.3-174.8,506.7c-793.4-80.7-1241.6-67.1-1241.6-67.1
				s-53.8,435.6-67.2,434.9c-192.7-22.4-614.1-85.1-1044.4-85.1"/>
			<path id="bkg_x5F_crowd" fill="#683D98" d="M5428.2,2990.9c-1986.7,121.5-1987.4,81.1-2585.5,81.1
				c-598.1,0-598.8,40.5-2585.5-81.1c0,0-104.4,69.8-104.4,397.6s104.4,397.6,104.4,397.6s2559.5-113.4,2585.5-127
				c26,13.6,2585.5,127,2585.5,127s104.4-69.8,104.4-397.6S5428.2,2990.9,5428.2,2990.9z"/>
			<path id="bkg_x5F_watch" fill="#D5C8E3" d="M4073.9,4176.6c0,0-427.9-86-1231.6-86s-1231.6,86-1231.6,86l-55-484.6
				c0,0,452.3-46.4,1286.6-46.4s1286.6,46.4,1286.6,46.4L4073.9,4176.6z"/>
			<g id="crowdfunding">
				<path fill="#FFFFFF" d="M861,3501.4c-0.4,25.1-0.6,37.7-1,62.8c-42.6,13.7-84.3,22.3-125.1,25.1c-61.8,4.3-111-5.2-147.7-29.6
					c-41.2-26.9-62.1-69.5-62.7-126.3c-0.5-42.8,7.5-83.9,24.1-122.5c18.8-44.2,45.8-75.8,80.1-95.3
					c36.5-20.7,104.7-30.8,204.4-30.3c8.4,23.6,12.6,35.4,21,58.7c-102.9-1.7-165,6.3-186.1,24.6c-18.4,15.6-33.5,38.4-45.2,68.4
					c-11.7,30-17.5,58.3-17.1,84.6c1.2,77.9,45.3,115.1,131.5,111.4C769.2,3531.5,810.5,3520.7,861,3501.4z"/>
				<path fill="#FFFFFF" d="M1216.5,3545c-26.9,12.2-40.3,18.4-67.1,31c-41-46.7-61.5-70.6-102.5-119.4
					c-21.1,5.2-43.9,10.6-68.2,16.1c0.2,14.3,0.2,32.1,0.2,53.5c-0.1,25.3-0.1,38.2-0.1,38.5c0.1,5.4-0.1,9.1-0.5,11.3
					c-23.2,0.3-37.4,1.2-42.6,2.6c-12,2.2-22.6,2.8-31.8,1.9c-2.1-3.9-3.2-13.4-3.4-28.7c-1.7-129.4-2.6-194.1-4.3-323.8
					c0-4-0.2-14.2-0.4-30.6c76.1-2.5,132-3.2,167.5-2.2c14.8,0.4,25,1,30.5,1.9c16,2.5,32.2,4.8,48.6,7c17.2,3.2,32.4,9,45.7,17.5
					c22.5,14.1,34.1,39.4,34.6,76.2c0.3,22.3-4,44.3-12.8,66c-8.9,21.7-20.9,38.4-35.9,50c-8.3,6.3-25.8,13.5-52.4,21.8
					C1159.6,3480.3,1178.5,3502.2,1216.5,3545z M1133.6,3269c-8.8-4.9-18.4-8.5-28.8-10.7c-10.4-2.2-20.8-4.5-31.2-6.7
					c-8-1.9-40.9-2.2-98.6-1c-0.9,52.5-0.8,103.6,0.3,153.2c0,3.2,0.1,4.8,0.1,8c80.2-18.1,126.7-29.5,139.4-35.6
					c9.9-4.6,17.4-15,22.8-30.2c4.8-13.4,7.4-27.7,7.2-42.8C1144.6,3284.3,1140.9,3272.9,1133.6,3269z"/>
				<path fill="#FFFFFF" d="M1662,3349.4c0.4,23.4-3.9,48-12.8,74.1c-10.9,31.8-26.3,56.8-46.3,75.1c-18,16.4-44.8,30.6-80.4,43
					c-32.7,11-63.1,17.2-91.1,18.5c-21.5,1-45.1-2.3-70.8-10c-27.7-8.6-50.1-20.3-66.9-35c-15.2-13.4-28.1-31.9-38.6-55.5
					c-9.2-21.6-14-41.1-14.2-58.4c-0.3-22,3.6-45.8,11.7-71.5c9.7-31.7,23.3-55.5,41-71.3c17.6-15.8,47.6-29,90.1-39.3
					c36.4-8.5,68.2-12.3,95.4-11.8c18.3,0.4,40.9,5,67.8,13.8c32.2,10.4,56.3,22.7,72.4,37c11.9,10.8,22.3,26.1,31.2,45.8
					C1657.9,3322.1,1661.8,3337.2,1662,3349.4z M1583,3356.7c-0.1-7.9-1.9-17.9-5.4-29.9c-4.2-13.3-9.1-23.3-14.5-30
					c-7.8-9.9-21-18.4-39.4-25.6c-15.9-6.5-29.8-9.9-41.5-10c-17.4-0.2-39.5,3-66.2,9.6c-30.3,7.6-51.1,16.5-62.3,26.7
					c-11.2,10.2-20.1,26.3-26.7,48.3c-5.8,18.7-8.6,36-8.4,52c0.2,9.3,3.7,21.7,9.7,36.8c6.9,17.1,15,30.9,24.7,40.3
					c9.7,9.4,23.2,16.9,40.2,22.6c15.5,5.2,29.4,7.8,41.5,7.3c12.6-0.5,28.9-3.9,48.6-9.5c21.2-6,37.2-12.3,47.2-19.3
					c18.5-13,32.6-32.9,42.3-59.7C1579.9,3395.8,1583.3,3376,1583,3356.7z"/>
				<path fill="#FFFFFF" d="M2076.9,3538.2c-35.8,1-53.7,1.5-89.5,2.6c-13.9-17.9-26.3-34.3-36.9-49.3
					c-12.5,19.3-24.1,36.5-34.6,51.5c-35.8,1.1-53.7,1.7-89.5,2.9c-75.8-97.3-134.9-200.9-177.6-309.2c31.4-3.9,47.1-5.9,78.6-9.7
					c40.3,111.7,87.8,199.1,142.5,263c13-16.6,26.3-35.7,40-57.4c-37.9-58.7-71-123.3-99.4-193.7c31.4-3.9,47.1-5.8,78.5-9.7
					c18.9,51.8,38.7,96.5,59.3,134.4c20.5-41.3,39.1-85.6,55.5-133c31.6,4.5,47.4,6.7,78.9,11.1c-25.4,65-56.6,128-93.6,189.6
					c13.6,19.5,27.7,37.8,42.4,54.8c52.6-65,97.3-149.7,133.9-254.1c31.6,4.3,47.4,6.5,78.9,10.7
					C2205.3,3341.9,2149.4,3439.7,2076.9,3538.2z"/>
				<path fill="#FFFFFF" d="M2630.3,3387.4c-1,17.2-8,36-20.2,55.7c-9.9,15.6-20.3,28-31.5,37.3c-7.6,6.7-24.3,14.8-50.2,24.4
					c-25.9,9.5-50.9,16.9-75.1,22.1c-13.3,3-29.9,5.2-49.6,6.4c-31.4,1.8-48.2,2.8-50.2,3.1c-30.7,2.9-53.7,3.7-69.1,2.3
					c-1.7-3.1-2.6-10.5-2.8-22.4c-1.8-100.4-2.6-150.6-4.4-251.1c0-3.1-0.2-11.3-0.4-24.6c15.3-0.8,39.7-1.7,72.5-2.3
					c57.7-1,83.4-1.1,76.2-1.1c96.8,0.2,158.3,13.7,184.6,41c14.4,15.4,21.8,35.8,22.2,61.2
					C2632.5,3339.7,2632.2,3356.2,2630.3,3387.4z M2558.5,3339.4c-0.7-16.3-5.3-28.8-14-37.3c-10.3-9.7-27.2-15.4-50.6-17.3
					c-14.6-0.2-32.7-0.9-54.6-2c-9.3-1.1-36.8-0.9-82.4,0.5c-0.6,32.3-0.6,71.8,0.3,118.7c0.1,5.6,0.1,18.8,0.7,39.1
					c0.6,23.9,1.5,41.4,2.1,51.7c26.2-0.7,48.8-3,67.7-7c16.5-3.3,34.8-9,54.9-17.1c17.2-6.9,27.8-12,31.8-15.4
					c24.7-22.2,38.4-45.2,40.6-68.6C2557.7,3357.5,2558.6,3342.2,2558.5,3339.4z"/>
				<path fill="#FFFFFF" d="M2992.4,3282.8c-90.6,0.9-135.9,1.3-226.4,2c-1.3,38.8-1.7,71.5-1.3,98c4.4,0,6.6-0.1,10.9-0.1
					c48.4-0.4,112.4-1.2,191.9-2.4c-0.2,18.3-0.3,27.4-0.4,45.7c-80.6,0.6-121,0.9-201.6,1.6c0.8,42.3,1.3,73.4,1.7,93.5
					c0.1,6.6,0.2,9.3,0.2,8.2c-13.3,0.1-24.8,0.3-34.5,0.4c-3.2,0-8,0.1-14.2,0.2c-6.3,0.1-11,0.1-14.2,0.2c-2.8,0-7.3-0.2-13.3-0.7
					c-1.4-40.4-2.2-60.6-3.6-101c-13.6,0.1-20.4,0.2-33.9,0.3c0.4-18.3,0.6-27.5,1-45.8c10.9,0.3,21.8,0.5,32.7,0.6
					c-1.6-87.7-2.4-135.5-2.6-143.5c29-0.7,52.7-1.1,71.3-1.2c93.8-0.4,140.7-0.7,234.5-1.6
					C2991.2,3255.4,2991.6,3264.5,2992.4,3282.8z"/>
				<path fill="#FFFFFF" d="M3368.7,3542.4c-34.1,1.9-50.7,2.9-83.4,4.7c-0.3-10.5-0.5-15.8-0.8-26.3c-64.9,9.3-114,16.1-149,20.7
					c-12.1,1.5-22.7,1.8-32,1.1c-33.7-2.5-55.2-22-65.2-57.8c-5.7-21.3-8.1-63.8-7.3-126.5c0.7-61.3,0.5-97.3-0.5-109
					c25.6-5.9,38.7-8.9,65.2-15.1c-2.8,49.5-3.7,94-2.9,133.2c1,48.3,1.8,77.2,2.8,85.7c2.4,25.5,8.2,38.2,17.4,38.1
					c18.3-0.3,73.9-8.6,172.1-26.3c-6.1-98.6-9-146.5-14.8-239.5c31.6-2.8,47.7-4.3,80.7-7.3
					C3357.9,3343.1,3361.4,3407.9,3368.7,3542.4z"/>
				<path fill="#FFFFFF" d="M3706.8,3533.8c-67.9-46.2-142.9-117-225-210.7c0.8,46.9,2,117.2,3.6,211.1c-11.3-0.4-24.7-0.3-39.9-0.2
					c-17.1,0.1-30.6-0.2-39.9-0.2c4.2-106.4,2.7-204.6-4.5-294.2c13.7-3.4,28.5-5.4,44.6-6.1c-2,0,13.5,0,46.6-0.3
					c88,102.6,161.3,181.2,219.8,233.5c-0.3-16.4-1.4-55.4-3.8-116.9c-1.9-49.8-3.1-90.8-3.3-122.9c28.2-1.1,42.1-1.7,41.7-1.7
					c13.7-0.1,27,1.3,40,4.5c-3.7,93.9-1.6,196.5,6.3,308.4C3773.4,3537.7,3744.7,3536.2,3706.8,3533.8z"/>
				<path fill="#FFFFFF" d="M4180.9,3375.9c-1.1,20.7-8.4,43.3-21.1,66.8c-10.3,18.6-21.3,33.2-32.9,44
					c-7.9,7.8-25.4,17.1-52.5,27.5c-27.1,10.5-53.3,18.2-78.5,23.3c-13.9,3-31.3,4.9-51.8,5.5c-32.8,0.9-50.5,1.4-52.6,1.6
					c-32.1,2.1-56.2,2.1-72.3,0c-1.7-3.5-2.7-11.8-2.9-25c-1.8-111.5-2.7-167.3-4.6-278.6c0-3.4-0.2-12.5-0.4-27.2
					c16-1.5,41.5-3.5,75.9-5.5c60.3-3.5,87.3-4.7,79.7-4.4c101.3-3.9,165.7,9.4,193.2,41.2c15.1,18,22.8,42.4,23.3,73
					C4183.2,3318.4,4182.9,3338.2,4180.9,3375.9z M4105.9,3319.2c-0.7-19.3-5.6-34-14.6-43.8c-10.8-11.1-28.4-17.4-53-18.9
					c-15.2,0.2-34.3-0.1-57.1-0.7c-9.7-1-38.5,0.1-86.2,3c-0.7,36.5-0.6,81.2,0.3,134.1c0.1,6.3,0.1,21.3,0.7,44.2
					c0.7,27.1,1.6,46.8,2.2,58.5c27.5-0.1,51.1-2.2,70.9-6.2c17.3-3.4,36.4-9.6,57.4-18.6c18-7.7,29.1-13.5,33.3-17.4
					c25.8-25.7,40.2-52.9,42.5-80.6C4104.9,3340.7,4105.9,3322.5,4105.9,3319.2z"/>
				<path fill="#FFFFFF" d="M4288.1,3221.2c-1.4,74.8-1,186.9,1.2,336.7c0.1,4.2,0.1,6.2,0.2,10.4c-14.3,0.4-36.3,0.3-65.8-0.3
					c-6.8-0.5-10.3-0.8-17.1-1.4c-0.1-6.8-0.1-11.8-0.2-14.8c0-0.7-0.7-57.8-0.7-170.1c0-67.9-1.2-124.6-4.5-169.4
					c15.3-5.4,32-8.5,50-9c14.6-0.5,22-0.7,36.6-1.2C4287.9,3209.7,4287.9,3213.6,4288.1,3221.2z"/>
				<path fill="#FFFFFF" d="M4613.8,3570.3c-68.1-57.7-143.3-144.8-225.6-256.3c0.8,56.3,2.1,140.6,3.7,253.3
					c-11.4-0.6-24.8-0.8-40-0.9c-17.2-0.2-30.7-0.7-40-0.9c4.2-126.4,2.7-243.4-4.5-349.7c13.7-4.4,28.6-7.1,44.7-8.3
					c-2.1,0.1,13.5-0.4,46.6-1.4c88.2,121.1,161.7,217.4,220.3,282.1c-0.3-20.1-1.4-68.2-3.8-143.6c-1.9-61.2-3.2-111.5-3.3-151
					c28.2-2,42.2-3.1,41.8-3c13.7-0.5,27.1,1.1,40.1,4.6c-3.7,116.3-1.6,243.1,6.4,381.9C4680.5,3576.1,4651.7,3573.8,4613.8,3570.3
					z"/>
				<path fill="#FFFFFF" d="M5107.5,3345.7c-1.3,92.3-2,138.4-3.3,230.5c-24,5-36,7.4-60.1,12.2c-28.3,6-61.8,8.2-100.3,6.9
					c-65.7-2.2-118.4-16.9-158.1-43.1c-44.2-29.4-66.7-69.9-67.4-122.8c-0.5-39.9,8.1-78,25.9-115c20.2-42,49-74.2,86.5-96.7
					c39-23.4,111.8-40.3,218.1-50.9c9.1,24.8,13.6,37.2,22.7,62.3c-110.4,6.4-177.2,19.4-200.5,39c-19.3,16.4-35.4,39.4-48.2,69
					c-12.8,29.6-18.7,57.1-18.1,82.5c1.8,76.5,47.4,116.1,138.1,117.8c27.1,0.5,56-2.9,86.6-10.4c-0.5-43.4-0.8-65.1-1.3-108.5
					c-34.8,0.4-52.2,0.6-87,0.9c4.1-24.8,6.1-37.3,10.1-62.2C5013.7,3352.8,5045,3350.5,5107.5,3345.7z"/>
			</g>
			<g id="watch">
				<path fill="#010101" d="M2027.1,3797.2c-12.5,79.9-18.6,119.8-30.4,199.8c-1.4,10.2-5.3,18.4-11.4,24.7
					c-6.2,6.3-14.6,9.8-25.4,10.6c-8.8,0.6-16.8-1.3-23.9-5.9c-7.1-4.6-12.2-11-15.5-19.1c-20.5-54.2-30.8-81.3-51.7-135.5
					c-12,56.8-17.9,85.2-29.4,142c-1.9,8.8-6,16-12.3,21.5c-6.3,5.6-13.8,8.7-22.6,9.5c-10.7,0.9-19.6-1.1-26.7-6.3
					c-7.1-5.1-12.2-12.6-15.2-22.4c-27.5-86.8-41.5-130.2-69.7-216.8c22.5-5.9,33.7-8.8,56.2-14.5c22,71,32.9,106.6,54.5,177.7
					c12.8-65.5,19.3-98.2,32.6-163.6c21.2-1.7,31.8-2.6,53-4.3c23.6,62.5,35.2,93.7,58.3,156.3c8.5-63.6,12.8-95.4,21.7-159
					c1-7,3.7-13.1,8.3-18.4c4.5-5.2,10.7-8.1,18.5-8.7c8.1-0.6,15.2,1.7,21.4,6.8c6.2,5.1,9.6,11.7,10.2,19.8
					C2027.6,3792.8,2027.5,3794.7,2027.1,3797.2z"/>
				<path fill="#010101" d="M2470.1,4008.8c-7.7-20.9-11.5-31.3-19.2-52.2c-41.4,1.3-62.1,2-103.4,3.7c-0.6,2.2-1.8,5.5-3.4,10
					c-1.6,4.5-3.4,9.1-5.4,13.8c-2,4.8-4,9.1-6.1,13c-2.1,3.9-4,6.3-5.6,7.1c-1.8,2.2-4.1,4.1-6.8,5.7c-2.7,1.5-5.7,2.4-9.1,2.5
					c-7.7,0.3-14.4-1.9-20.3-6.8c-5.8-4.9-9-11.3-9.3-19.1c-0.1-2.6,0-5.2,0.5-7.8c0.5-2.5,1.2-5,2-7.5
					c25.5-77.2,38.5-115.8,64.9-192.9c3.3-9.5,8.4-17.4,15.2-23.7c6.9-6.4,15.7-9.7,26.4-10.1c11.5-0.4,20.9,2.1,28.2,7.6
					c7.3,5.5,13,13.2,17.3,23.1c36.5,86.8,54.4,130.3,89.7,217.4C2503.5,3999.1,2492.3,4002.3,2470.1,4008.8z M2393.5,3804.3
					c-12.8,42.5-19.2,63.8-31.7,106.3c28.2-1.1,42.3-1.6,70.6-2.5C2416.9,3866.6,2409.1,3845.8,2393.5,3804.3z"/>
				<path fill="#010101" d="M2928.4,3782.8c-5.2,4.6-11.2,6.9-18,6.8c-16.4-0.1-24.6-0.2-40.9-0.3c-0.3,73.1-0.5,109.7-0.8,182.9
					c0,7.9-2.8,14.6-8.3,20c-5.5,5.5-12.2,8.2-20.1,8.2c-7.7,0-14.3-2.8-19.9-8.4c-5.6-5.6-8.4-12.2-8.4-19.9
					c0-73.1,0-109.7-0.1-182.9c-23.1,0-34.7,0-57.8,0.2c-0.3-19.9-0.4-29.9-0.6-49.8c63-0.3,94.5-0.3,157.5,0.2
					c7.4,0.1,13.4,2.6,18.3,7.7c4.8,5.1,7.2,11.1,7.1,18C2936.2,3772.5,2933.6,3778.2,2928.4,3782.8z"/>
				<path fill="#010101" d="M3400.9,3983.4c-3,3.8-6.2,7-9.7,9.8c-4.7,3.6-10,6.6-15.9,8.9c-5.9,2.4-11.9,4.2-18.2,5.6
					c-6.3,1.4-12.6,2.3-18.8,2.7c-6.3,0.4-12.1,0.5-17.6,0.3c-22-1-41.7-6.3-59.3-16.1c-17.5-9.7-31.7-23.3-42.7-40.6
					c-7.3-11.5-13-24-17-37.5c-4-13.5-5.8-27.5-5.4-41.8c0.5-16.7,3.8-32.6,9.7-47.8c6-15.1,14.2-28.3,24.7-39.7
					c10.5-11.4,22.9-20.5,37.3-27.5c14.3-7,30.2-11,47.7-11.9c1.2-0.2,2.6-0.2,4-0.2c1.5,0.1,2.8,0.1,4,0.2
					c7.1,0.3,14.7,1.5,22.8,3.5c8.1,2,16.1,4.6,24.1,7.8c7.9,3.2,15.4,6.9,22.3,11c6.9,4.1,12.8,8.4,17.7,12.9
					c-9,15.7-13.5,23.5-22.4,39.2c-8.2-7.1-16.9-12.9-26.1-17.4c-9.2-4.5-19.5-7-31-7.5c-4.2-0.2-8.1,0-11.7,0.6
					c-10.1,1.5-19,4.5-26.9,8.9c-7.9,4.5-14.6,10.1-20.2,17c-5.6,6.8-10,14.7-13.1,23.5c-3.1,8.8-4.9,18.2-5.2,28
					c-0.4,10.5,0.6,20.7,3,30.4c2.4,9.8,6.3,18.5,11.7,26.1c5.4,7.6,12.2,13.9,20.6,18.8c8.4,4.9,18.2,7.6,29.5,8.1
					c7.4,0.3,14.2-0.3,20.3-1.8c6.1-1.5,11.7-3.2,16.9-5.2c5.1-1.9,9.8-3.7,14-5.3c4.2-1.6,8.2-2.3,12-2.1c7,0.3,12.8,3,17.3,7.9
					c4.6,4.9,6.7,10.8,6.4,17.7C3405.4,3975,3403.8,3979.6,3400.9,3983.4z"/>
				<path fill="#010101" d="M3907.5,4043.7c-6.1,4.9-13.1,7-21,6.3c-3.8-0.4-7.4-1.4-10.7-3.3c-3.3-1.9-6.1-4.2-8.4-6.9
					c-2.3-2.7-4.1-5.8-5.3-9.3c-1.3-3.5-1.7-7.1-1.4-10.9c2.9-32.9,4.4-49.3,7.4-82.1c-44.2-4-66.4-5.8-110.6-9.4
					c-3.4,42.7-5.1,64.1-8.6,106.9c-22.8-1.8-34.2-2.7-57-4.4c7-92.7,10.4-139,17.4-231.7c0.6-7.9,4-14.4,10.1-19.6
					c6.2-5.2,13.3-7.4,21.3-6.8c8.6,0.7,15.3,4.3,20.2,10.2c4.7,5.6,7.1,12.6,6.5,20.7c-2.4,30.3-3.6,45.5-6.1,75.8
					c44.3,3.5,66.4,5.4,110.7,9.4c3.6-40.4,5.4-60.6,9-101.1c23.5,1.8,35.2,2.7,58.6,4.7c-8.8,93-13.2,139.4-22,232.4
					C3917.1,4032.3,3913.6,4038.7,3907.5,4043.7z"/>
			</g>
		</g>
	</g>
</g>
</svg>
