<svg version="1.1" xmlns="http://www.w3.org/2000/svg" xmlns:xlink="http://www.w3.org/1999/xlink" x="0px" y="0px"
	 viewBox="0 0 72.2 91.2" enable-background="new 0 0 72.2 91.2" xml:space="preserve">
<g>
	<path fill="#FFFFFF" d="M34.1,0.3c13.1,0.6,23.3,6.3,29.3,18.2c5.9,11.6,5.1,23.3-2.5,33.9c-2.6,3.6-2.7,6-0.3,9.5
		c3.4,4.9,6.3,10.2,9.3,15.4c2.8,4.9,1.9,9.7-2.1,12.3c-4.3,2.7-9.1,1.2-12.2-3.8c-3.5-5.7-6.9-11.4-10.2-17.1
		c-1.3-2.3-2.6-3.1-5.5-2.6c-13,2.1-24.2-1.7-32.2-12.3c-8.2-10.9-9.2-23.1-3.1-35.2C10.5,6.5,20.8,0.9,34.1,0.3z M33.7,53.7
		c11.5,0.1,20.5-8.7,20.6-19.9c0.1-11.2-8.9-20.3-20.2-20.5c-11.2-0.1-20.5,8.9-20.7,20C13.3,44.3,22.5,53.6,33.7,53.7z"/>
</g>
</svg>
