<svg version="1.1" id="Layer_1" xmlns="http://www.w3.org/2000/svg" xmlns:xlink="http://www.w3.org/1999/xlink" x="0px" y="0px"
	 viewBox="0 0 40.7 40.8" enable-background="new 0 0 40.7 40.8" xml:space="preserve">
<path fill="#bbb" d="M20.3,0C9,0,0,9,0,20.3c0,11.3,9,20.3,20.3,20.3c11.3,0,20.3-9,20.3-20.3C40.6,9,31.6,0,20.3,0z M20.3,35.6
	c-8.7-0.2-15.3-7-15.3-15.4C5,11.6,11.9,5,20.3,5c8.4,0,15.4,6.9,15.3,15.3C35.6,29,28.8,35.5,20.3,35.6z"/>
<path fill="#bbb" d="M11.7,26.1c0-0.7,0.4-1.4,1-1.9c1.1-1.1,2.3-2.3,3.4-3.4c0.4-0.4,0.4-0.6,0-0.9c-1.2-1.1-2.3-2.3-3.4-3.4
	c-1.2-1.2-1.3-2.8-0.2-3.9c1.1-1.1,2.7-1,3.9,0.2c1.2,1.1,2.3,2.3,3.4,3.4c0.4,0.4,0.6,0.4,1,0c1.1-1.1,2.2-2.2,3.3-3.3
	c1.3-1.3,2.9-1.3,4-0.2c1.1,1.1,1,2.7-0.2,3.9c-1.1,1.1-2.1,2.2-3.2,3.2c-0.6,0.6-0.5,0.9,0,1.4c1.1,1,2.2,2.1,3.2,3.2
	c1.2,1.3,1.3,2.9,0.1,4c-1.1,1-2.7,0.9-3.9-0.2c-1.1-1.1-2.3-2.2-3.3-3.4c-0.5-0.5-0.7-0.4-1.2,0c-1.2,1.2-2.3,2.4-3.6,3.6
	c-0.8,0.8-1.9,0.9-2.9,0.5C12.3,28.2,11.7,27.4,11.7,26.1z"/>
</svg>
